<svg width="143" height="192" viewBox="0 0 143 192" fill="none" xmlns="http://www.w3.org/2000/svg">
<path d="M88.851 155.614C145.814 152.765 144.936 122.878 119.71 115.961" stroke="#2C2C2C" stroke-width="12"/>
<path d="M84.6303 169.85C81.0332 170.75 77.3583 168.689 76.2508 165.15L74.5475 159.708C73.4417 156.174 75.2783 152.391 78.7385 151.074L82.5146 149.638C86.2828 148.204 90.4802 150.241 91.6845 154.089L93.5306 159.988C94.733 163.83 92.4547 167.892 88.5492 168.869L84.6303 169.85Z" fill="#606060"/>
<rect width="15.1464" height="9.2434" transform="matrix(-0.997854 0.0654819 0.0654819 0.997854 88.952 154.223)" fill="#ECBB0F"/>
<path d="M74.5394 155.731L66.8958 155.451L66.8958 163.973L74.5394 164.379L74.5394 155.731Z" fill="#EEC842"/>
<path d="M89.0882 154.2L84.0863 153.642L66.8154 155.428L74.5238 155.815L89.0882 154.2Z" fill="#BE8B3D"/>
<g filter="url(#filter0_d_11_124)">
<path d="M98.7715 165.309C101.72 164.108 103.217 160.814 102.183 157.803L99.5643 150.18C98.5315 147.174 95.3333 145.495 92.2723 146.352L85.2682 148.312C81.9457 149.243 80.0903 152.777 81.2112 156.04L84.0985 164.445C85.2179 167.703 88.8453 169.352 92.0362 168.052L98.7715 165.309Z" fill="#8B8B8B"/>
</g>
<path d="M41.182 166.821C30.1961 163.566 -18.6294 133.05 25.7205 115.554" stroke="#2C2C2C" stroke-width="12"/>
<path d="M49.2738 182.96C52.5578 184.682 56.6147 183.544 58.5245 180.366L61.4616 175.478C63.3683 172.304 62.4744 168.195 59.4216 166.1L56.0901 163.815C52.7655 161.534 48.2063 162.526 46.1298 165.981L42.9465 171.279C40.873 174.73 42.1306 179.215 45.6961 181.084L49.2738 182.96Z" fill="#606060"/>
<rect x="47.4047" y="174.071" width="14.8968" height="9.2434" transform="rotate(24.1488 47.4047 174.071)" fill="#6CA02B"/>
<path d="M60.5477 180.151L67.2222 183.162L63.8922 190.787L56.8047 188.471L60.5477 180.151Z" fill="#62B346"/>
<path d="M47.2851 174.001L51.7608 175.432L67.2222 183.162L60.3738 180.59L47.2851 174.001Z" fill="#BC3B3B"/>
<rect x="50.6598" y="166.274" width="14.8968" height="9.2434" transform="rotate(24.1488 50.6598 166.274)" fill="#CE3B3B"/>
<path d="M63.8028 172.354L70.4773 175.365L67.1472 182.99L60.0598 180.674L63.8028 172.354Z" fill="#E13737"/>
<path d="M50.5401 166.204L55.0158 167.634L70.4773 175.365L63.6288 172.793L50.5401 166.204Z" fill="#BC3B3B"/>
<g filter="url(#filter1_d_11_124)">
<path d="M36.5998 175.217C34.0171 173.355 33.3379 169.801 35.0521 167.118L39.3922 160.327C41.1039 157.648 44.6076 156.769 47.3807 158.323L53.726 161.878C56.736 163.565 57.707 167.436 55.8491 170.344L51.0636 177.832C49.2083 180.735 45.2947 181.483 42.4996 179.469L36.5998 175.217Z" fill="#8B8B8B"/>
</g>
<g filter="url(#filter2_d_11_124)">
<path d="M25.1179 46.5498C25.0013 21.0744 45.5586 0.327895 71.034 0.211249C96.5094 0.0946035 117.256 20.652 117.373 46.1274L117.612 98.3704L25.3571 98.7928L25.1179 46.5498Z" fill="white" fill-opacity="0.64" shape-rendering="crispEdges"/>
</g>
<path d="M29.1766 49.6209C29.0686 26.0275 48.1073 6.8137 71.7007 6.70567C95.2941 6.59764 114.508 25.6363 114.616 49.2297L114.841 98.383L29.4017 98.7743L29.1766 49.6209Z" fill="white" fill-opacity="0.16"/>
<path d="M37.2368 53.9284C37.1508 35.1428 52.3098 19.8443 71.0954 19.7583C89.881 19.6723 105.179 34.8313 105.266 53.6169L105.47 98.2608L37.4412 98.5723L37.2368 53.9284Z" fill="#5DC88E"/>
<path d="M39.5575 52.4837C39.4773 34.9611 53.6171 20.6912 71.1398 20.6109C88.6624 20.5307 102.932 34.6706 103.013 52.1932L103.224 98.2711L39.7685 98.5617L39.5575 52.4837Z" fill="#47D98A"/>
<g filter="url(#filter3_d_11_124)">
<g filter="url(#filter4_d_11_124)">
<ellipse cx="70.8841" cy="57.3701" rx="15.8683" ry="16.6821" fill="black"/>
</g>
<ellipse cx="70.8521" cy="59.8836" rx="15.8683" ry="16.6821" fill="white"/>
<mask id="mask0_11_124" style="mask-type:alpha" maskUnits="userSpaceOnUse" x="54" y="43" width="33" height="34">
<ellipse cx="70.8521" cy="59.8836" rx="15.8683" ry="16.6821" fill="#D9D9D9"/>
</mask>
<g mask="url(#mask0_11_124)">
<ellipse cx="70.8521" cy="68.0212" rx="12.6133" ry="13.427" fill="black"/>
<circle cx="78.1759" cy="64.7662" r="2.84816" fill="white"/>
</g>
<path d="M59.8663 88.3652C67.8683 86.8733 84.3605 82.4248 86.3135 76.5657" stroke="black" stroke-width="2"/>
<path d="M68.8497 30.9329L72.9185 30.9229L71.4894 40.6916L70.3269 40.6944L68.8497 30.9329Z" fill="black"/>
<path d="M55.8296 35.6971L59.1631 33.3641L63.5716 42.1978L62.6192 42.8644L55.8296 35.6971Z" fill="black"/>
<path d="M85.9199 35.6971L82.5864 33.3641L78.1779 42.1978L79.1303 42.8644L85.9199 35.6971Z" fill="black"/>
</g>
<path d="M22.2852 103.557C22.7336 100.628 25.253 98.4649 28.2161 98.4649H116.634C119.585 98.4649 122.097 100.61 122.56 103.524L126.339 127.33C126.917 130.973 124.102 134.27 120.413 134.27H24.5714C20.8958 134.27 18.0843 130.996 18.6405 127.362L22.2852 103.557Z" fill="#8B8B8B"/>
<path d="M27.39 107.619C27.8413 104.693 30.3593 102.534 33.3199 102.534H111.181C114.131 102.534 116.644 104.679 117.107 107.594L120.237 127.331C120.814 130.974 117.999 134.27 114.311 134.27H30.2756C26.5974 134.27 23.785 130.991 24.3457 127.356L27.39 107.619Z" fill="#B7B7B7"/>
<g filter="url(#filter5_d_11_124)">
<rect x="49.3195" y="111.485" width="45.5705" height="13.8339" rx="6" fill="#0E3002"/>
<path d="M49.3195 117.995H67.2222C67.6291 115.418 68.4429 111.078 70.0704 112.706C72.1048 114.74 72.5117 128.574 75.3598 122.064C77.6739 116.775 74.5461 117.995 80.6493 117.995C85.5318 117.995 91.635 117.995 94.0763 117.995" stroke="#14FF00"/>
</g>
<defs>
<filter id="filter0_d_11_124" x="76.8837" y="146.128" width="29.6259" height="30.369" filterUnits="userSpaceOnUse" color-interpolation-filters="sRGB">
<feFlood flood-opacity="0" result="BackgroundImageFix"/>
<feColorMatrix in="SourceAlpha" type="matrix" values="0 0 0 0 0 0 0 0 0 0 0 0 0 0 0 0 0 0 127 0" result="hardAlpha"/>
<feOffset dy="4"/>
<feGaussianBlur stdDeviation="2"/>
<feComposite in2="hardAlpha" operator="out"/>
<feColorMatrix type="matrix" values="0 0 0 0 0 0 0 0 0 0 0 0 0 0 0 0 0 0 0.25 0"/>
<feBlend mode="normal" in2="BackgroundImageFix" result="effect1_dropShadow_11_124"/>
<feBlend mode="normal" in="SourceGraphic" in2="effect1_dropShadow_11_124" result="shape"/>
</filter>
<filter id="filter1_d_11_124" x="30.1075" y="157.557" width="30.6869" height="31.0452" filterUnits="userSpaceOnUse" color-interpolation-filters="sRGB">
<feFlood flood-opacity="0" result="BackgroundImageFix"/>
<feColorMatrix in="SourceAlpha" type="matrix" values="0 0 0 0 0 0 0 0 0 0 0 0 0 0 0 0 0 0 127 0" result="hardAlpha"/>
<feOffset dy="4"/>
<feGaussianBlur stdDeviation="2"/>
<feComposite in2="hardAlpha" operator="out"/>
<feColorMatrix type="matrix" values="0 0 0 0 0 0 0 0 0 0 0 0 0 0 0 0 0 0 0.25 0"/>
<feBlend mode="normal" in2="BackgroundImageFix" result="effect1_dropShadow_11_124"/>
<feBlend mode="normal" in="SourceGraphic" in2="effect1_dropShadow_11_124" result="shape"/>
</filter>
<filter id="filter2_d_11_124" x="21.1174" y="0.210754" width="100.494" height="106.582" filterUnits="userSpaceOnUse" color-interpolation-filters="sRGB">
<feFlood flood-opacity="0" result="BackgroundImageFix"/>
<feColorMatrix in="SourceAlpha" type="matrix" values="0 0 0 0 0 0 0 0 0 0 0 0 0 0 0 0 0 0 127 0" result="hardAlpha"/>
<feOffset dy="4"/>
<feGaussianBlur stdDeviation="2"/>
<feComposite in2="hardAlpha" operator="out"/>
<feColorMatrix type="matrix" values="0 0 0 0 0 0 0 0 0 0 0 0 0 0 0 0 0 0 0.25 0"/>
<feBlend mode="normal" in2="BackgroundImageFix" result="effect1_dropShadow_11_124"/>
<feBlend mode="normal" in="SourceGraphic" in2="effect1_dropShadow_11_124" result="shape"/>
</filter>
<filter id="filter3_d_11_124" x="50.9837" y="30.9229" width="40.2784" height="66.4253" filterUnits="userSpaceOnUse" color-interpolation-filters="sRGB">
<feFlood flood-opacity="0" result="BackgroundImageFix"/>
<feColorMatrix in="SourceAlpha" type="matrix" values="0 0 0 0 0 0 0 0 0 0 0 0 0 0 0 0 0 0 127 0" result="hardAlpha"/>
<feOffset dy="4"/>
<feGaussianBlur stdDeviation="2"/>
<feComposite in2="hardAlpha" operator="out"/>
<feColorMatrix type="matrix" values="0 0 0 0 0 0 0 0 0 0 0 0 0 0 0 0 0 0 0.25 0"/>
<feBlend mode="normal" in2="BackgroundImageFix" result="effect1_dropShadow_11_124"/>
<feBlend mode="normal" in="SourceGraphic" in2="effect1_dropShadow_11_124" result="shape"/>
</filter>
<filter id="filter4_d_11_124" x="51.0158" y="40.688" width="39.7366" height="41.3641" filterUnits="userSpaceOnUse" color-interpolation-filters="sRGB">
<feFlood flood-opacity="0" result="BackgroundImageFix"/>
<feColorMatrix in="SourceAlpha" type="matrix" values="0 0 0 0 0 0 0 0 0 0 0 0 0 0 0 0 0 0 127 0" result="hardAlpha"/>
<feOffset dy="4"/>
<feGaussianBlur stdDeviation="2"/>
<feComposite in2="hardAlpha" operator="out"/>
<feColorMatrix type="matrix" values="0 0 0 0 0 0 0 0 0 0 0 0 0 0 0 0 0 0 0.25 0"/>
<feBlend mode="normal" in2="BackgroundImageFix" result="effect1_dropShadow_11_124"/>
<feBlend mode="normal" in="SourceGraphic" in2="effect1_dropShadow_11_124" result="shape"/>
</filter>
<filter id="filter5_d_11_124" x="45.3195" y="111.485" width="53.5705" height="21.8339" filterUnits="userSpaceOnUse" color-interpolation-filters="sRGB">
<feFlood flood-opacity="0" result="BackgroundImageFix"/>
<feColorMatrix in="SourceAlpha" type="matrix" values="0 0 0 0 0 0 0 0 0 0 0 0 0 0 0 0 0 0 127 0" result="hardAlpha"/>
<feOffset dy="4"/>
<feGaussianBlur stdDeviation="2"/>
<feComposite in2="hardAlpha" operator="out"/>
<feColorMatrix type="matrix" values="0 0 0 0 0 0 0 0 0 0 0 0 0 0 0 0 0 0 0.25 0"/>
<feBlend mode="normal" in2="BackgroundImageFix" result="effect1_dropShadow_11_124"/>
<feBlend mode="normal" in="SourceGraphic" in2="effect1_dropShadow_11_124" result="shape"/>
</filter>
</defs>
</svg>
