<svg width="189" height="191" viewBox="0 0 189 191" fill="none" xmlns="http://www.w3.org/2000/svg">
<path d="M136.988 150.405C192.045 147.653 191.196 118.765 166.814 112.08" stroke="#2C2C2C" stroke-width="12"/>
<path d="M133.123 164.112C129.526 165.012 125.851 162.95 124.744 159.412L123.229 154.573C122.124 151.04 123.96 147.256 127.42 145.94L130.631 144.718C134.4 143.284 138.597 145.322 139.801 149.17L141.437 154.396C142.64 158.238 140.361 162.301 136.456 163.278L133.123 164.112Z" fill="#606060"/>
<path d="M104.628 143.908C109.791 142.754 134.567 130.563 132.994 135.282C131.421 140.001 146.243 171.465 146.243 171.465C146.243 171.465 116.083 185.227 117.522 181.355C118.96 177.483 99.4639 145.061 104.628 143.908Z" fill="#F3E7BD"/>
<g filter="url(#filter0_d_13_253)">
<path d="M146.401 159.848C149.349 158.647 150.847 155.353 149.812 152.342L147.405 145.333C146.372 142.327 143.174 140.648 140.113 141.505L133.73 143.291C130.408 144.222 128.552 147.755 129.673 151.019L132.326 158.74C133.445 161.999 137.073 163.647 140.264 162.348L146.401 159.848Z" fill="#8B8B8B"/>
</g>
<path d="M35.1765 79.4053C34.8882 90.476 48.36 144.471 77.6864 108.927" stroke="#2C2C2C" stroke-width="12"/>
<path d="M22.794 67.3654C22.171 63.7101 24.5064 60.2032 28.1193 59.3688L33.0594 58.2279C36.6667 57.3949 40.2989 59.5147 41.3478 63.0653L42.3211 66.3601C43.4633 70.2267 41.1114 74.2564 37.183 75.1637L31.8467 76.396C27.9241 77.3019 24.0475 74.7203 23.3711 70.7517L22.794 67.3654Z" fill="#606060"/>
<g filter="url(#filter1_d_13_253)">
<path d="M41.3752 43.7481L42.2069 47.0076L28.8106 65.4967L26.7151 63.9814L41.3752 43.7481Z" fill="#B2ADAD"/>
<path d="M24.1658 63.7535C22.4511 67.4922 23.0839 71.4491 25.5791 72.5914C28.0743 73.7337 27.9373 70.0038 29.652 66.265C31.3667 62.5263 34.2838 60.1946 31.7886 59.0522C29.2934 57.9099 25.8805 60.0148 24.1658 63.7535Z" fill="#47D88A"/>
<path d="M25.0005 63.8791C23.7555 66.5937 24.2149 69.4667 26.0266 70.2961C27.8384 71.1255 27.7388 68.4173 28.9838 65.7027C30.2288 62.9881 32.3469 61.295 30.5352 60.4656C28.7235 59.6362 26.2455 61.1645 25.0005 63.8791Z" fill="#2DAB67"/>
</g>
<g filter="url(#filter2_d_13_253)">
<path d="M27.7237 41.8486L26.4032 44.9427L36.814 65.2627L39.1166 64.0856L27.7237 41.8486Z" fill="#C3C3C3"/>
<path d="M42.0992 64.9773C43.2695 68.9205 42.085 72.7486 39.4536 73.5276C36.8221 74.3066 37.4839 70.6332 36.3137 66.69C35.1434 62.7468 32.5843 60.027 35.2157 59.248C37.8472 58.469 40.929 61.0341 42.0992 64.9773Z" fill="#47D88A"/>
<path d="M41.1331 64.9785C41.9984 67.8369 41.1534 70.621 39.2459 71.1969C37.3384 71.7729 37.8044 69.1032 36.9392 66.2448C36.074 63.3864 34.2052 61.4216 36.1127 60.8457C38.0202 60.2698 40.2679 62.1201 41.1331 64.9785Z" fill="#2DAB67"/>
</g>
<g filter="url(#filter3_d_13_253)">
<circle cx="33.4982" cy="55.8433" r="0.786525" fill="white"/>
</g>
<g filter="url(#filter4_d_13_253)">
<path d="M26.0324 80.9295C27.0048 83.9609 30.1754 85.7051 33.2564 84.9035L40.4283 83.0375C43.5047 82.2371 45.4229 79.1763 44.8019 76.0587L43.5073 69.5588C42.8333 66.175 39.4512 64.0554 36.1121 64.9242L28.2106 66.98C24.8762 67.8476 22.9558 71.3387 24.0082 74.6194L26.0324 80.9295Z" fill="#8B8B8B"/>
</g>
<g filter="url(#filter5_d_13_253)">
<path d="M75.3882 44.9918C75.2754 20.369 95.1447 0.316869 119.768 0.204127C144.39 0.0913854 164.442 19.9607 164.555 44.5835L164.786 95.0781L75.6194 95.4863L75.3882 44.9918Z" fill="white" fill-opacity="0.64" shape-rendering="crispEdges"/>
</g>
<path d="M79.311 47.9602C79.2066 25.1564 97.6081 6.58564 120.412 6.48123C143.216 6.37682 161.786 24.7783 161.891 47.5821L162.108 95.0903L79.5285 95.4685L79.311 47.9602Z" fill="white" fill-opacity="0.16"/>
<path d="M87.1015 52.1236C87.0183 33.9667 101.67 19.1802 119.827 19.0971C137.984 19.0139 152.77 33.6656 152.853 51.8225L153.051 94.9722L87.299 95.2733L87.1015 52.1236Z" fill="#5DC88E"/>
<path d="M89.3445 50.7272C89.267 33.791 102.934 19.9987 119.87 19.9211C136.806 19.8436 150.598 33.5102 150.676 50.4464L150.88 94.9822L89.5484 95.263L89.3445 50.7272Z" fill="#47D98A"/>
<g filter="url(#filter6_d_13_253)">
<g filter="url(#filter7_d_13_253)">
<ellipse cx="119.623" cy="55.45" rx="15.3372" ry="16.1238" fill="black"/>
</g>
<ellipse cx="119.592" cy="57.8794" rx="15.3372" ry="16.1238" fill="white"/>
<mask id="mask0_13_253" style="mask-type:alpha" maskUnits="userSpaceOnUse" x="104" y="41" width="31" height="34">
<ellipse cx="119.592" cy="57.8794" rx="15.3372" ry="16.1238" fill="#D9D9D9"/>
</mask>
<g mask="url(#mask0_13_253)">
<ellipse cx="119.592" cy="65.7447" rx="12.1911" ry="12.9777" fill="black"/>
<circle cx="126.67" cy="62.5986" r="2.75284" fill="white"/>
</g>
<path d="M108.974 85.4078C116.708 83.9658 132.648 79.6662 134.536 74.0032" stroke="black" stroke-width="2"/>
<path d="M117.656 29.8976L121.589 29.888L120.208 39.3297L119.084 39.3325L117.656 29.8976Z" fill="black"/>
<path d="M105.072 34.5023L108.294 32.2475L112.555 40.7855L111.634 41.4298L105.072 34.5023Z" fill="black"/>
<path d="M134.155 34.5023L130.933 32.2475L126.672 40.7855L127.593 41.4298L134.155 34.5023Z" fill="black"/>
</g>
<path d="M72.6242 100.261C73.0726 97.3325 75.592 95.1695 78.5551 95.1695H163.67C166.621 95.1695 169.133 97.3148 169.596 100.229L173.184 122.836C173.763 126.479 170.948 129.777 167.259 129.777H75.0939C71.4183 129.777 68.6067 126.502 69.163 122.869L72.6242 100.261Z" fill="#8B8B8B"/>
<path d="M77.558 104.187C78.0093 101.262 80.5273 99.1021 83.4879 99.1021H158.399C161.35 99.1021 163.863 101.248 164.325 104.162L167.287 122.837C167.864 126.48 165.049 129.777 161.361 129.777H80.6075C76.9292 129.777 74.1169 126.497 74.6776 122.862L77.558 104.187Z" fill="#B7B7B7"/>
<g filter="url(#filter8_d_13_253)">
<rect x="98.7798" y="107.754" width="44.0454" height="13.3709" rx="6" fill="#0E3002"/>
<path d="M98.7798 114.046H116.083C116.477 111.555 117.263 107.361 118.836 108.934C120.802 110.9 121.196 124.271 123.949 117.979C126.185 112.866 123.162 114.046 129.061 114.046C133.78 114.046 139.679 114.046 142.039 114.046" stroke="#14FF00"/>
</g>
<defs>
<filter id="filter0_d_13_253" x="125.346" y="141.281" width="28.7932" height="29.5115" filterUnits="userSpaceOnUse" color-interpolation-filters="sRGB">
<feFlood flood-opacity="0" result="BackgroundImageFix"/>
<feColorMatrix in="SourceAlpha" type="matrix" values="0 0 0 0 0 0 0 0 0 0 0 0 0 0 0 0 0 0 127 0" result="hardAlpha"/>
<feOffset dy="4"/>
<feGaussianBlur stdDeviation="2"/>
<feComposite in2="hardAlpha" operator="out"/>
<feColorMatrix type="matrix" values="0 0 0 0 0 0 0 0 0 0 0 0 0 0 0 0 0 0 0.25 0"/>
<feBlend mode="normal" in2="BackgroundImageFix" result="effect1_dropShadow_13_253"/>
<feBlend mode="normal" in="SourceGraphic" in2="effect1_dropShadow_13_253" result="shape"/>
</filter>
<filter id="filter1_d_13_253" x="19.2014" y="43.7481" width="27.0056" height="37.0528" filterUnits="userSpaceOnUse" color-interpolation-filters="sRGB">
<feFlood flood-opacity="0" result="BackgroundImageFix"/>
<feColorMatrix in="SourceAlpha" type="matrix" values="0 0 0 0 0 0 0 0 0 0 0 0 0 0 0 0 0 0 127 0" result="hardAlpha"/>
<feOffset dy="4"/>
<feGaussianBlur stdDeviation="2"/>
<feComposite in2="hardAlpha" operator="out"/>
<feColorMatrix type="matrix" values="0 0 0 0 0 0 0 0 0 0 0 0 0 0 0 0 0 0 0.25 0"/>
<feBlend mode="normal" in2="BackgroundImageFix" result="effect1_dropShadow_13_253"/>
<feBlend mode="normal" in="SourceGraphic" in2="effect1_dropShadow_13_253" result="shape"/>
</filter>
<filter id="filter2_d_13_253" x="22.4033" y="41.8486" width="24.1472" height="39.7841" filterUnits="userSpaceOnUse" color-interpolation-filters="sRGB">
<feFlood flood-opacity="0" result="BackgroundImageFix"/>
<feColorMatrix in="SourceAlpha" type="matrix" values="0 0 0 0 0 0 0 0 0 0 0 0 0 0 0 0 0 0 127 0" result="hardAlpha"/>
<feOffset dy="4"/>
<feGaussianBlur stdDeviation="2"/>
<feComposite in2="hardAlpha" operator="out"/>
<feColorMatrix type="matrix" values="0 0 0 0 0 0 0 0 0 0 0 0 0 0 0 0 0 0 0.25 0"/>
<feBlend mode="normal" in2="BackgroundImageFix" result="effect1_dropShadow_13_253"/>
<feBlend mode="normal" in="SourceGraphic" in2="effect1_dropShadow_13_253" result="shape"/>
</filter>
<filter id="filter3_d_13_253" x="28.7117" y="55.0567" width="9.57306" height="9.57306" filterUnits="userSpaceOnUse" color-interpolation-filters="sRGB">
<feFlood flood-opacity="0" result="BackgroundImageFix"/>
<feColorMatrix in="SourceAlpha" type="matrix" values="0 0 0 0 0 0 0 0 0 0 0 0 0 0 0 0 0 0 127 0" result="hardAlpha"/>
<feOffset dy="4"/>
<feGaussianBlur stdDeviation="2"/>
<feComposite in2="hardAlpha" operator="out"/>
<feColorMatrix type="matrix" values="0 0 0 0 0 0 0 0 0 0 0 0 0 0 0 0 0 0 0.25 0"/>
<feBlend mode="normal" in2="BackgroundImageFix" result="effect1_dropShadow_13_253"/>
<feBlend mode="normal" in="SourceGraphic" in2="effect1_dropShadow_13_253" result="shape"/>
</filter>
<filter id="filter4_d_13_253" x="19.7195" y="64.7291" width="29.199" height="28.3689" filterUnits="userSpaceOnUse" color-interpolation-filters="sRGB">
<feFlood flood-opacity="0" result="BackgroundImageFix"/>
<feColorMatrix in="SourceAlpha" type="matrix" values="0 0 0 0 0 0 0 0 0 0 0 0 0 0 0 0 0 0 127 0" result="hardAlpha"/>
<feOffset dy="4"/>
<feGaussianBlur stdDeviation="2"/>
<feComposite in2="hardAlpha" operator="out"/>
<feColorMatrix type="matrix" values="0 0 0 0 0 0 0 0 0 0 0 0 0 0 0 0 0 0 0.25 0"/>
<feBlend mode="normal" in2="BackgroundImageFix" result="effect1_dropShadow_13_253"/>
<feBlend mode="normal" in="SourceGraphic" in2="effect1_dropShadow_13_253" result="shape"/>
</filter>
<filter id="filter5_d_13_253" x="71.3877" y="0.203644" width="97.3987" height="103.283" filterUnits="userSpaceOnUse" color-interpolation-filters="sRGB">
<feFlood flood-opacity="0" result="BackgroundImageFix"/>
<feColorMatrix in="SourceAlpha" type="matrix" values="0 0 0 0 0 0 0 0 0 0 0 0 0 0 0 0 0 0 127 0" result="hardAlpha"/>
<feOffset dy="4"/>
<feGaussianBlur stdDeviation="2"/>
<feComposite in2="hardAlpha" operator="out"/>
<feColorMatrix type="matrix" values="0 0 0 0 0 0 0 0 0 0 0 0 0 0 0 0 0 0 0.25 0"/>
<feBlend mode="normal" in2="BackgroundImageFix" result="effect1_dropShadow_13_253"/>
<feBlend mode="normal" in="SourceGraphic" in2="effect1_dropShadow_13_253" result="shape"/>
</filter>
<filter id="filter6_d_13_253" x="100.254" y="29.888" width="39.2298" height="64.5028" filterUnits="userSpaceOnUse" color-interpolation-filters="sRGB">
<feFlood flood-opacity="0" result="BackgroundImageFix"/>
<feColorMatrix in="SourceAlpha" type="matrix" values="0 0 0 0 0 0 0 0 0 0 0 0 0 0 0 0 0 0 127 0" result="hardAlpha"/>
<feOffset dy="4"/>
<feGaussianBlur stdDeviation="2"/>
<feComposite in2="hardAlpha" operator="out"/>
<feColorMatrix type="matrix" values="0 0 0 0 0 0 0 0 0 0 0 0 0 0 0 0 0 0 0.25 0"/>
<feBlend mode="normal" in2="BackgroundImageFix" result="effect1_dropShadow_13_253"/>
<feBlend mode="normal" in="SourceGraphic" in2="effect1_dropShadow_13_253" result="shape"/>
</filter>
<filter id="filter7_d_13_253" x="100.286" y="39.3262" width="38.6744" height="40.2475" filterUnits="userSpaceOnUse" color-interpolation-filters="sRGB">
<feFlood flood-opacity="0" result="BackgroundImageFix"/>
<feColorMatrix in="SourceAlpha" type="matrix" values="0 0 0 0 0 0 0 0 0 0 0 0 0 0 0 0 0 0 127 0" result="hardAlpha"/>
<feOffset dy="4"/>
<feGaussianBlur stdDeviation="2"/>
<feComposite in2="hardAlpha" operator="out"/>
<feColorMatrix type="matrix" values="0 0 0 0 0 0 0 0 0 0 0 0 0 0 0 0 0 0 0.25 0"/>
<feBlend mode="normal" in2="BackgroundImageFix" result="effect1_dropShadow_13_253"/>
<feBlend mode="normal" in="SourceGraphic" in2="effect1_dropShadow_13_253" result="shape"/>
</filter>
<filter id="filter8_d_13_253" x="94.7798" y="107.754" width="52.0455" height="21.3709" filterUnits="userSpaceOnUse" color-interpolation-filters="sRGB">
<feFlood flood-opacity="0" result="BackgroundImageFix"/>
<feColorMatrix in="SourceAlpha" type="matrix" values="0 0 0 0 0 0 0 0 0 0 0 0 0 0 0 0 0 0 127 0" result="hardAlpha"/>
<feOffset dy="4"/>
<feGaussianBlur stdDeviation="2"/>
<feComposite in2="hardAlpha" operator="out"/>
<feColorMatrix type="matrix" values="0 0 0 0 0 0 0 0 0 0 0 0 0 0 0 0 0 0 0.25 0"/>
<feBlend mode="normal" in2="BackgroundImageFix" result="effect1_dropShadow_13_253"/>
<feBlend mode="normal" in="SourceGraphic" in2="effect1_dropShadow_13_253" result="shape"/>
</filter>
</defs>
</svg>
