<svg width="83" height="61" viewBox="0 0 83 61" fill="none" xmlns="http://www.w3.org/2000/svg">
<mask id="path-1-inside-1_33_9" fill="white">
<path fill-rule="evenodd" clip-rule="evenodd" d="M26.7761 0H0V5.71875V12.3906V61H69V5.71875H32.4403H28.2021L26.7761 0Z"/>
</mask>
<path fill-rule="evenodd" clip-rule="evenodd" d="M26.7761 0H0V5.71875V12.3906V61H69V5.71875H32.4403H28.2021L26.7761 0Z" fill="#D9D9D9"/>
<path d="M0 0V-2H-2V0H0ZM26.7761 0L28.7167 -0.483877L28.3387 -2H26.7761V0ZM0 61H-2V63H0V61ZM69 61V63H71V61H69ZM69 5.71875H71V3.71875H69V5.71875ZM28.2021 5.71875L26.2615 6.20263L26.6395 7.71875H28.2021V5.71875ZM0 2H26.7761V-2H0V2ZM2 5.71875V0H-2V5.71875H2ZM2 12.3906V5.71875H-2V12.3906H2ZM2 61V12.3906H-2V61H2ZM69 59H0V63H69V59ZM67 5.71875V61H71V5.71875H67ZM32.4403 7.71875H69V3.71875H32.4403V7.71875ZM28.2021 7.71875H32.4403V3.71875H28.2021V7.71875ZM24.8355 0.483877L26.2615 6.20263L30.1426 5.23487L28.7167 -0.483877L24.8355 0.483877Z" fill="black" mask="url(#path-1-inside-1_33_9)"/>
<path d="M1.32889 60L12.2803 22H81.5575L67.3207 60H1.32889Z" fill="white" stroke="black" stroke-width="2"/>
</svg>
